<?xml version="1.0" encoding="UTF-8" standalone="no"?>
<svg
   xmlns:dc="http://purl.org/dc/elements/1.1/"
   xmlns:cc="http://creativecommons.org/ns#"
   xmlns:rdf="http://www.w3.org/1999/02/22-rdf-syntax-ns#"
   xmlns:svg="http://www.w3.org/2000/svg"
   xmlns="http://www.w3.org/2000/svg"
   xmlns:sodipodi="http://sodipodi.sourceforge.net/DTD/sodipodi-0.dtd"
   xmlns:inkscape="http://www.inkscape.org/namespaces/inkscape"
   width="210mm"
   height="297mm"
   viewBox="0 0 210 297"
   version="1.1"
   id="svg2139"
   inkscape:export-filename="C:\Users\widana_d\SyncWork\Programs\BatteryModels_Simscape\+BatteryLibrary\+Utilities\icons\iconGenerator.png"
   inkscape:export-xdpi="32.400002"
   inkscape:export-ydpi="32.400002"
   inkscape:version="1.0.2-2 (e86c870879, 2021-01-15)"
   sodipodi:docname="iconGenerator.svg">
  <defs
     id="defs2133" />
  <sodipodi:namedview
     id="base"
     pagecolor="#ffffff"
     bordercolor="#666666"
     borderopacity="1.0"
     inkscape:pageopacity="0.0"
     inkscape:pageshadow="2"
     inkscape:zoom="0.35"
     inkscape:cx="400"
     inkscape:cy="569.52381"
     inkscape:document-units="mm"
     inkscape:current-layer="g3449"
     inkscape:document-rotation="0"
     showgrid="false"
     inkscape:window-width="1368"
     inkscape:window-height="860"
     inkscape:window-x="-6"
     inkscape:window-y="-6"
     inkscape:window-maximized="1" />
  <metadata
     id="metadata2136">
    <rdf:RDF>
      <cc:Work
         rdf:about="">
        <dc:format>image/svg+xml</dc:format>
        <dc:type
           rdf:resource="http://purl.org/dc/dcmitype/StillImage" />
        <dc:title></dc:title>
      </cc:Work>
    </rdf:RDF>
  </metadata>
  <g
     inkscape:label="Layer 1"
     inkscape:groupmode="layer"
     id="layer1">
    <g
       id="g3449">
      <rect
         style="font-variation-settings:'wdth' 100, 'wght' 600;fill:#ffffff;stroke-width:0.564999"
         id="rect3378"
         width="152.70239"
         height="141.3631"
         x="17.386906"
         y="65.011902"
         inkscape:export-xdpi="9.9799995"
         inkscape:export-ydpi="9.9799995" />
      <g
         id="Blue"
         transform="matrix(2.1166667,0,0,2.1166667,25.399991,66.070235)"
         inkscape:export-xdpi="9.9799995"
         inkscape:export-ydpi="9.9799995">
        <path
           d="m 5,15 h 54 a 2,2 0 0 1 2,2 V 51 H 3 V 17 a 2,2 0 0 1 2,-2 z"
           fill="#cdeef6"
           id="path3271" />
        <path
           d="m 3,51 h 58 v 6 H 3 Z"
           fill="#7cb8eb"
           id="path3273" />
        <path
           d="m 8,57 h 10 v 4 H 8 Z"
           fill="#cdeef6"
           id="path3275" />
        <path
           d="m 46,57 h 10 v 4 H 46 Z"
           fill="#cdeef6"
           id="path3277" />
        <path
           d="M 12,19 H 28 V 51 H 12 Z"
           fill="#7cb8eb"
           id="path3279" />
        <path
           d="m 16,23 h 8 v 8 h -8 z"
           fill="#ffffff"
           id="path3281" />
        <path
           d="m 28,19 h 6 v 32 h -6 z"
           fill="#7cb8eb"
           id="path3283" />
        <path
           d="M 34,19 H 54 V 51 H 34 Z"
           fill="#7cb8eb"
           id="path3285" />
        <path
           d="m 8,22 h 4 v 4 H 8 Z"
           fill="#ffffff"
           id="path3287" />
        <path
           d="m 8,42 h 4 v 4 H 8 Z"
           fill="#ffffff"
           id="path3289" />
        <path
           d="m 43,23 h 5 l -3,5 h 5 l -7,9 v -5 h -5 z"
           fill="#ffffff"
           id="path3291" />
        <path
           d="m 15,34 h 10 v 2 H 15 Z"
           fill="#4f83d1"
           id="path3293" />
        <path
           d="m 15,38 h 4 v 2 h -4 z"
           fill="#4f83d1"
           id="path3295" />
        <path
           d="m 21,38 h 4 v 2 h -4 z"
           fill="#4f83d1"
           id="path3297" />
        <path
           d="m 50,48 h -3 v -2 h 2 v -5 h 2 v 6 a 1,1 0 0 1 -1,1 z"
           fill="#4f83d1"
           id="path3299" />
        <path
           d="m 43,46 h 2 v 2 h -2 z"
           fill="#4f83d1"
           id="path3301" />
        <path
           d="m 39,46 h 2 v 2 h -2 z"
           fill="#4f83d1"
           id="path3303" />
        <path
           d="m 35,7 h 18 v 4 H 35 Z"
           fill="#7cb8eb"
           id="path3305" />
        <path
           d="m 37,11 h 4 v 4 h -4 z"
           fill="#7cb8eb"
           id="path3307" />
        <path
           d="m 47,11 h 4 v 4 h -4 z"
           fill="#7cb8eb"
           id="path3309" />
        <g
           fill="#4f83d1"
           id="g3331">
          <path
             d="M 55,10 H 53 V 8 h 2 A 1,1 0 0 0 56,7 V 2 h 2 v 5 a 3,3 0 0 1 -3,3 z"
             id="path3311" />
          <path
             d="m 59,14 h -7 v -2 h 1 a 1,1 0 0 0 1,-1 v -1 h 1 A 3,3 0 0 0 58,7 V 2 H 56 V 7 A 1,1 0 0 1 55,8 H 54 V 7 A 1,1 0 0 0 53,6 H 35 a 1,1 0 0 0 -1,1 v 4 a 1,1 0 0 0 1,1 h 1 v 2 H 5 a 3,3 0 0 0 -3,3 v 40 a 1,1 0 0 0 1,1 h 4 v 3 a 1,1 0 0 0 1,1 h 10 a 1,1 0 0 0 1,-1 v -3 h 26 v 3 a 1,1 0 0 0 1,1 h 10 a 1,1 0 0 0 1,-1 v -3 h 4 a 1,1 0 0 0 1,-1 V 17 A 3,3 0 0 0 59,14 Z M 36,8 h 16 v 2 H 36 Z m 14,4 v 2 h -2 v -2 z m -4,0 v 2 h -4 v -2 z m -6,0 v 2 H 38 V 12 Z M 17,60 H 9 v -2 h 8 z m 38,0 h -8 v -2 h 8 z m 5,-4 H 4 V 52 H 60 Z M 11,45 H 9 v -2 h 2 z M 11,25 H 9 v -2 h 2 z m 2,25 V 20 h 14 v 30 z m 16,0 V 20 h 4 v 30 z m 6,0 V 20 h 18 v 30 z m 25,0 H 55 V 19 A 1,1 0 0 0 54,18 H 12 a 1,1 0 0 0 -1,1 v 2 H 8 a 1,1 0 0 0 -1,1 v 4 a 1,1 0 0 0 1,1 h 3 V 41 H 8 a 1,1 0 0 0 -1,1 v 4 a 1,1 0 0 0 1,1 h 3 v 3 H 4 V 17 a 1,1 0 0 1 1,-1 h 54 a 1,1 0 0 1 1,1 z"
             id="path3313" />
          <path
             d="m 24,22 h -8 a 1,1 0 0 0 -1,1 v 8 a 1,1 0 0 0 1,1 h 8 a 1,1 0 0 0 1,-1 v -8 a 1,1 0 0 0 -1,-1 z m -1,8 h -6 v -6 h 6 z"
             id="path3315" />
          <path
             d="m 43.789,37.614 7,-9 A 1,1 0 0 0 50,27 h -3.233 l 2.09,-3.485 A 1,1 0 0 0 48,22 h -5 a 1,1 0 0 0 -0.874,0.514 l -5,9 A 1,1 0 0 0 38,33 h 4 v 4 A 1,1 0 0 0 42.676,37.946 1.01,1.01 0 0 0 43,38 1,1 0 0 0 43.789,37.614 Z M 39.7,31 43.59,24 h 2.644 l -2.09,3.485 A 1,1 0 0 0 45,29 h 2.955 L 44,34.085 V 32 a 1,1 0 0 0 -1,-1 z"
             id="path3317" />
          <path
             d="m 15,34 h 10 v 2 H 15 Z"
             id="path3319" />
          <path
             d="m 15,38 h 4 v 2 h -4 z"
             id="path3321" />
          <path
             d="m 21,38 h 4 v 2 h -4 z"
             id="path3323" />
          <path
             d="m 49,46 h -2 v 2 h 3 a 1,1 0 0 0 1,-1 v -6 h -2 z"
             id="path3325" />
          <path
             d="m 43,46 h 2 v 2 h -2 z"
             id="path3327" />
          <path
             d="m 39,46 h 2 v 2 h -2 z"
             id="path3329" />
        </g>
      </g>
    </g>
  </g>
</svg>
