<?xml version="1.0" encoding="UTF-8" standalone="no"?>
<svg
   xmlns:dc="http://purl.org/dc/elements/1.1/"
   xmlns:cc="http://creativecommons.org/ns#"
   xmlns:rdf="http://www.w3.org/1999/02/22-rdf-syntax-ns#"
   xmlns:svg="http://www.w3.org/2000/svg"
   xmlns="http://www.w3.org/2000/svg"
   xmlns:sodipodi="http://sodipodi.sourceforge.net/DTD/sodipodi-0.dtd"
   xmlns:inkscape="http://www.inkscape.org/namespaces/inkscape"
   width="210mm"
   height="297mm"
   viewBox="0 0 210 297"
   version="1.1"
   id="svg8"
   inkscape:version="1.0.2-2 (e86c870879, 2021-01-15)"
   sodipodi:docname="iconTECM.svg"
   inkscape:export-filename="M:\Programs\BatterySimscape_Library\+BatteryLibrary\+Models\icons\TECM.png"
   inkscape:export-xdpi="50"
   inkscape:export-ydpi="50">
  <defs
     id="defs2">
    <rect
       x="-37.797621"
       y="122.46429"
       width="255.5119"
       height="106.58929"
       id="rect888" />
  </defs>
  <sodipodi:namedview
     id="base"
     pagecolor="#ffffff"
     bordercolor="#666666"
     borderopacity="1.0"
     inkscape:pageopacity="0.0"
     inkscape:pageshadow="2"
     inkscape:zoom="0.35"
     inkscape:cx="400"
     inkscape:cy="560"
     inkscape:document-units="mm"
     inkscape:current-layer="g4073"
     inkscape:document-rotation="0"
     showgrid="false"
     inkscape:window-width="1368"
     inkscape:window-height="860"
     inkscape:window-x="-6"
     inkscape:window-y="-6"
     inkscape:window-maximized="1" />
  <metadata
     id="metadata5">
    <rdf:RDF>
      <cc:Work
         rdf:about="">
        <dc:format>image/svg+xml</dc:format>
        <dc:type
           rdf:resource="http://purl.org/dc/dcmitype/StillImage" />
        <dc:title></dc:title>
      </cc:Work>
    </rdf:RDF>
  </metadata>
  <g
     inkscape:label="Layer 1"
     inkscape:groupmode="layer"
     id="layer1">
    <g
       inkscape:label="Layer 1"
       id="layer1-1"
       transform="translate(-8.3154738,-21.922621)"
       inkscape:export-xdpi="50"
       inkscape:export-ydpi="50">
      <rect
         style="font-variation-settings:'wdth' 100, 'wght' 600;fill:#ffffff;stroke-width:0.2366;stroke-miterlimit:4;stroke-dasharray:none"
         id="rect4119"
         width="65.011902"
         height="99.785728"
         x="61.988094"
         y="109.61309"
         ry="0"
         inkscape:export-xdpi="50"
         inkscape:export-ydpi="50" />
      <g
         id="g4073"
         transform="matrix(0.19013101,0,0,0.19013101,45.758724,110.51948)">
        <path
           d="M 316,0 H 196 c -15.439,0 -28,12.561 -28,28 v 44 c 0,4.418 3.582,8 8,8 h 160 c 4.418,0 8,-3.582 8,-8 V 28 C 344,12.561 331.439,0 316,0 Z"
           fill="#595965"
           id="path4053" />
        <path
           d="m 344,28 v 44 c 0,4.42 -3.58,8 -8,8 h -40 c 4.42,0 8,-3.58 8,-8 V 28 C 304,12.56 291.44,0 276,0 h 40 c 15.44,0 28,12.56 28,28 z"
           fill="#44454e"
           id="path4055" />
        <path
           d="M 370,64 H 142 c -20.953,0 -38,17.047 -38,38 v 372 c 0,20.953 17.047,38 38,38 h 228 c 20.953,0 38,-17.047 38,-38 V 102 C 408,81.047 390.953,64 370,64 Z"
           fill="#595965"
           id="path4057" />
        <path
           d="m 408,102 v 372 c 0,20.95 -17.05,38 -38,38 h -40 c 20.95,0 38,-17.05 38,-38 V 102 C 368,81.05 350.95,64 330,64 h 40 c 20.95,0 38,17.05 38,38 z"
           fill="#44454e"
           id="path4059" />
        <path
           d="M 360,104 H 152 c -4.418,0 -8,3.582 -8,8 v 352 c 0,4.418 3.582,8 8,8 h 208 c 4.418,0 8,-3.582 8,-8 V 112 c 0,-4.418 -3.582,-8 -8,-8 z"
           fill="#79cb9c"
           id="path4061"
           style="fill:#2ad4ff;fill-opacity:1" />
        <path
           d="m 368,112 v 352 c 0,4.42 -3.58,8 -8,8 h -40 c 4.42,0 8,-3.58 8,-8 V 112 c 0,-4.42 -3.58,-8 -8,-8 h 40 c 4.42,0 8,3.58 8,8 z"
           fill="#63ac7d"
           id="path4063"
           style="fill:#0088aa" />
        <path
           d="m 299.999,264 h -32 v -48 c 0,-8.262 -11.07,-11.079 -15.023,-3.831 l -48,88 c -2.902,5.32 0.952,11.831 7.023,11.831 h 32 v 48 c 0,8.276 11.08,11.06 15.023,3.831 l 48,-88 C 309.924,270.511 306.07,264 299.999,264 Z"
           fill="#f1cc76"
           id="path4065" />
        <g
           fill="#ebb15d"
           id="g4071">
          <path
             d="m 267.999,264 h -24 v -35.37 l 8.98,-16.46 c 3.953,-7.251 15.02,-4.432 15.02,3.83 z"
             id="path4067" />
          <path
             d="m 307.019,275.83 -48,88 c -3.945,7.251 -15.02,4.428 -15.02,-3.83 v -12.63 l 39.02,-71.54 c 2.912,-5.311 -0.952,-11.83 -7.02,-11.83 h 24 c 6.058,0 9.938,6.51 7.02,11.83 z"
             id="path4069" />
        </g>
      </g>
      <text
         xml:space="preserve"
         style="font-style:normal;font-variant:normal;font-weight:normal;font-stretch:normal;font-size:13.9831px;line-height:1.25;font-family:Bahnschrift;-inkscape-font-specification:'Bahnschrift, @wght=600,wdth=100.0';font-variant-ligatures:normal;font-variant-caps:normal;font-variant-numeric:normal;font-variant-east-asian:normal;font-variation-settings:'wdth' 100, 'wght' 600;display:inline;fill:#280b0b;fill-opacity:1;stroke:none;stroke-width:0.349578"
         x="-183.32234"
         y="96.742401"
         id="text938"
         transform="rotate(-90.577434)"
         inkscape:transform-center-x="-5.1630955"
         inkscape:transform-center-y="3.9790239"
         inkscape:export-xdpi="50"
         inkscape:export-ydpi="50"><tspan
           sodipodi:role="line"
           id="tspan869"
           x="-183.32234"
           y="96.742401">TECM</tspan></text>
      <rect
         style="font-variation-settings:'wdth' 100, 'wght' 600;fill:#ff0000;stroke-width:0.331999;stroke-miterlimit:4;stroke-dasharray:none"
         id="rect4121"
         width="0"
         height="0"
         x="132.29166"
         y="93.738091"
         ry="0" />
      <text
         xml:space="preserve"
         id="text886"
         style="line-height:1.25;font-family:Bahnschrift;font-size:13.98309957px;-inkscape-font-specification:'Bahnschrift, @wght=600,wdth=100.0';font-variation-settings:'wght' 600, 'wdth' 100;white-space:pre;shape-inside:url(#rect888);" />
    </g>
  </g>
</svg>
